<svg xmlns="http://www.w3.org/2000/svg" viewBox="110 15 125 145">
  <path fill="#a5d5be" d="M 136.980469 127.277344 C 136.980469 127.277344 145.703125 138.566406 181.460938 120.773438 C 215.078125 104.042969 219.425781 118.445312 215.289062 124.449219 C 213.277344 127.367188 207.925781 131.101562 199.859375 135.273438 C 190.589844 140.066406 176.636719 144.414062 160.035156 140.382812 C 153.140625 138.707031 145.152344 136.019531 136.980469 127.277344"/>
  <path fill="#a5d5be" d="M 126.4375 115.453125 C 126.4375 115.453125 134.105469 123.296875 159.824219 106.511719 C 184.003906 90.734375 188.761719 101.429688 185.988281 106.296875 C 184.425781 109.039062 180.957031 112.039062 175.171875 115.941406 C 168.519531 120.429688 158.253906 125 145.214844 123.402344 C 139.796875 122.742188 133.457031 121.402344 126.4375 115.453125"/>
  <path fill="#977136" d="M 185.5625 30.632812 C 178.675781 28.261719 168.234375 41.363281 199.875 61.433594 C 200.425781 59.289062 200.9375 57.292969 201.335938 55.542969 C 204.796875 40.367188 185.5625 30.632812 185.5625 30.632812"/>
  <path fill="#f4793e" d="M 199.9375 61.476562 C 199.917969 61.460938 199.898438 61.449219 199.875 61.433594 C 195.648438 77.871094 188.894531 103.800781 208.976562 107.953125 C 220.945312 110.425781 226.222656 103.367188 228.542969 96.140625 C 229.207031 92.976562 229.796875 80.390625 199.9375 61.476562"/>
  <path fill="#a34227" d="M 228.675781 95.628906 C 230.359375 89.40625 230.046875 79.570312 229.800781 77.699219 228.984375 73.753906 C 227.808594 69.644531 226.820312 66.785156 225.761719 64.183594 C 224.890625 62.292969 223.636719 59.835938 220.953125 55.398438 C 219.46875 53.300781 217.898438 51.28125 216.238281 49.34375 C 214.121094 47.101562 212.125 45.171875 210.035156 43.386719 C 207.363281 41.300781 205.59375 40.039062 203.898438 38.910156 C 201.363281 37.355469 198.214844 35.621094 193.664062 33.5625 C 190.570312 32.34375 188.367188 31.535156 185.5625 30.632812 C 204.796875 40.367188 201.335938 55.539062 200.425781 59.289062 199.875 61.433594 199.9375 61.476562 C 229.796875 80.390625 229.207031 92.976562 228.675781 95.628906"/>
  <path fill="#977136" d="M 119.6875 104.40625 C 121.03125 111.566406 137.582031 114.167969 139.386719 76.738281 C 137.246094 77.320312 135.261719 77.863281 133.542969 78.382812 C 118.640625 82.875 119.6875 104.40625 119.6875 104.40625"/>
  <path fill="#f4793e" d="M 139.390625 76.664062 C 155.761719 72.285156 181.640625 65.339844 175.324219 45.832031 C 171.558594 34.203125 162.8125 33.105469 155.382812 34.664062 C 152.304688 35.648438 141.070312 41.359375 139.390625 76.664062"/>
  <path fill="#a34227" d="M 154.871094 34.800781 C 148.628906 36.410156 143.957031 38.832031 140.234375 41.542969 C 138.730469 42.683594 135.707031 45.347656 132.714844 48.394531 C 130.71875 50.671875 128.976562 52.875 126.25 56.875 C 124.5 59.839844 123.71875 61.402344 122.628906 63.726562 C 121.652344 66.09375 120.789062 68.492188 120.046875 70.875 C 119.726562 72.007812 119.195312 74.128906 118.675781 76.828125 C 118.09375 80.917969 117.769531 90.941406 118.226562 95.914062 C 118.699219 99.210938 119.085938 101.523438 119.6875 104.40625 C 118.640625 82.875 133.542969 78.382812 137.25 77.320312 139.386719 76.738281 C 141.070312 41.359375 152.304688 35.648438 154.871094 34.800781"/>
</svg>
